Coordinates
version=1
nRows=11
nColumns=42
inDegrees=yes

Units are S.I. units (second, meters, Newtons, ...)
If the header above contains a line with 'inDegrees', this indicates whether rotational values are in degrees (yes) or radians (no).

endheader
time	pelvis_tilt	pelvis_list	pelvis_rotation	pelvis_tx	pelvis_ty	pelvis_tz	hip_flexion_r	hip_adduction_r	hip_rotation_r	knee_angle_r	knee_angle_r_beta	ankle_angle_r	subtalar_angle_r	mtp_angle_r	hip_flexion_l	hip_adduction_l	hip_rotation_l	knee_angle_l	knee_angle_l_beta	ankle_angle_l	subtalar_angle_l	mtp_angle_l	lumbar_extension	lumbar_bending	lumbar_rotation	sh_tx_r	sh_ty_r	sh_tz_r	sh_plane_elev_r	sh_elev_r	sh_axial_rot_r	elbow_flex_r	pro_sup_r	sh_tx_l	sh_ty_l	sh_tz_l	sh_plane_elev_l	sh_elev_l	sh_axial_rot_l	elbow_flex_l	pro_sup_l
      5.68333330	     -3.11432496	     -0.54581644	     -8.52965429	      0.27708462	      0.93816177	     -0.02265061	      0.46352631	     -2.52352791	      0.36476490	      0.39166002	      0.00683576	      5.21471038	     -2.78130600	     -7.49999987	     -0.95125543	     -5.27629169	     -6.44299598	      0.67501917	      0.01178131	      8.94735947	     -3.01444595	     -7.49999987	     -0.29083792	      0.19062257	     -5.51253425	      0.00324896	     -0.01714460	     -0.00570365	    -15.52705672	      5.56135287	     -0.59028908	     33.73247249	     74.57526785	     -0.00283790	     -0.01340853	     -0.00449487	     21.70508345	      9.46118686	     -1.88118490	     26.76462663	     66.55072460
      5.70000000	     -3.47592297	     -0.49799889	     -8.75336162	      0.27687174	      0.93726955	     -0.02246263	      0.97157470	     -2.39531684	      0.59153643	      0.39030477	      0.00681210	      5.22109807	     -2.80368627	     -7.49999987	     -0.53604209	     -5.38920342	     -6.69596489	      0.66875310	      0.01167194	      8.95830905	     -2.89988761	     -7.49999987	      0.10222205	      0.21086696	     -5.97585406	      0.00464714	     -0.01721368	     -0.00564463	    -16.11096994	      6.19964916	     -2.10485153	     36.56714018	     73.92464484	     -0.00277832	     -0.01355788	     -0.00445527	     22.13683711	      9.70896508	     -1.69516127	     26.54291470	     66.42902555
      5.71666670	     -3.93214287	     -0.41898180	     -8.99762305	      0.27310181	      0.93460086	     -0.02640772	      1.69335604	     -2.39216450	      0.85069355	      0.39310205	      0.00686093	      5.18390663	     -3.01065255	     -7.49999987	      0.06572522	     -5.41834609	     -6.94123986	      0.67646617	      0.01180656	      8.92407580	     -2.96180227	     -7.49999987	      0.49336705	      0.28360169	     -5.88569809	      0.00489685	     -0.01714772	     -0.00550480	    -19.62079752	      6.75597692	     -2.12908069	     39.91668986	     72.88110889	     -0.00080422	     -0.01370689	     -0.00451627	     23.78936107	     10.00565902	     -2.03416178	     26.79989527	     66.57159044
      5.73333330	     -4.28801338	     -0.35676141	     -9.24722429	      0.27347808	      0.94044280	     -0.01736467	      2.27125644	     -2.24388454	      1.08310812	      0.38069776	      0.00664443	      5.25998628	     -2.75938403	     -7.49999987	      0.50970373	     -5.54148866	     -7.16788877	      0.68391077	      0.01193649	      8.60521552	     -3.00250933	     -7.49999987	      0.77955299	      0.20225488	     -6.52242648	      0.00542270	     -0.01713915	     -0.00554449	    -20.14952796	      7.38048370	     -3.48267260	     42.40174648	     72.14850799	     -0.00127240	     -0.01348788	     -0.00455222	     24.31462870	     10.32576772	     -1.80045087	     26.56593971	     66.37397586
      5.75000000	     -4.65571895	     -0.34479449	     -9.42252411	      0.26996981	      0.94129728	     -0.01180192	      2.87341465	     -1.96087237	      1.38311817	      0.37027889	      0.00646259	      5.10776586	     -2.87789054	     -7.49999987	      1.01852585	     -5.79670698	     -7.55505755	      0.75472756	      0.01317248	      8.41559475	     -2.68622510	     -7.49999987	      0.89173949	      0.14228202	     -7.03690650	      0.00541716	     -0.01707329	     -0.00557786	    -20.82335491	      7.95815533	     -4.90597852	     44.88712201	     69.35779727	     -0.00211526	     -0.01367790	     -0.00451016	     25.11390028	     10.92173069	     -1.48740891	     26.98994930	     65.16620069
      5.76666670	     -4.94248270	     -0.29853317	     -9.62979083	      0.27011661	      0.94027223	     -0.01187172	      3.34087575	     -1.72754374	      1.67001441	      0.37047832	      0.00646607	      4.93643992	     -2.70628129	     -7.49999987	      1.42794460	     -6.01759264	     -8.00707020	      0.86594236	      0.01511355	      8.11993587	     -2.53126719	     -7.49999987	      1.25828806	     -0.01931755	     -7.36092767	      0.00689424	     -0.01706304	     -0.00540133	    -21.47326103	      8.89757516	     -6.18979726	     47.15428718	     68.64060380	      0.00047323	     -0.01350593	     -0.00457729	     25.59501036	     11.09993554	     -1.47448089	     26.77414161	     65.13373414
      5.78333330	     -5.37480080	     -0.24953134	     -9.89764300	      0.26705522	      0.93756002	     -0.00656862	      3.97037531	     -1.41564802	      1.90491381	      0.38160458	      0.00666026	      4.80174003	     -2.58890931	     -7.49999987	      2.04809230	     -6.29823384	     -8.40374798	      1.04384160	      0.01821847	      7.89972569	     -2.48779187	     -7.49999987	      1.67724058	     -0.13865887	     -7.64760038	      0.00866377	     -0.01702556	     -0.00522032	    -21.88572970	      9.91583143	     -7.65188155	     49.55618946	     67.24051703	      0.00182857	     -0.01357309	     -0.00464088	     26.07075284	     11.37086495	     -1.50996477	     26.63914267	     64.79468848
      5.80000000	     -5.94637678	     -0.20282738	    -10.14573837	      0.26320870	      0.93987903	     -0.00169929	      4.76880532	     -1.05978820	      2.13098313	      0.38694752	      0.00675351	      4.53945227	     -2.16115499	     -7.49999987	      2.88125249	     -6.64876148	     -8.87489542	      1.26436339	      0.02206730	      7.58079847	     -2.19900969	     -7.49999987	      2.25659263	     -0.32570729	     -7.55856740	      0.00955388	     -0.01702939	     -0.00515893	    -21.83228237	     10.99271292	     -9.15616999	     50.63025663	     66.27344555	      0.00432311	     -0.01355458	     -0.00464966	     27.02764496	     11.78046735	     -1.41587861	     26.34165083	     64.62391009
      5.81666670	     -6.08450242	     -0.22777617	    -10.50390321	      0.26837295	      0.94064426	      0.00316925	      4.98596772	     -0.70471850	      2.60293165	      0.41536796	      0.00724954	      4.35230639	     -2.07036995	     -7.49999987	      3.13757630	     -7.04710998	     -9.43082988	      1.58796928	      0.02771529	      7.46800469	     -1.90992829	     -7.49999987	      2.29015926	     -0.45027928	     -7.34280442	      0.01080801	     -0.01701269	     -0.00492978	    -24.22041775	     11.63404947	     -9.11686251	     53.33788292	     61.55936541	      0.00672480	     -0.01291754	     -0.00474835	     28.44502626	     11.91523806	     -2.75047329	     25.19152145	     65.60489576
      5.83333330	     -6.43203470	     -0.18558941	    -10.81771492	      0.26873601	      0.93975665	      0.00315234	      5.40301167	     -0.46217082	      2.85258073	      0.46848630	      0.00817663	      4.16006945	     -1.82099725	     -7.49999987	      3.69270322	     -7.36726378	     -9.88762093	      2.03185014	      0.03546247	      7.33171845	     -1.86336794	     -7.49999987	      2.63477334	     -0.57419969	     -7.40990073	      0.01161230	     -0.01690140	     -0.00481057	    -24.53104328	     12.64559487	    -11.05968758	     54.76013110	     60.96668379	      0.00843728	     -0.01277262	     -0.00482467	     28.59939604	     11.90096989	     -2.72875532	     24.55119460	     65.48781167
      5.85000000	     -6.79320553	     -0.10035307	    -11.24992669	      0.26966968	      0.94021678	      0.00382090	      5.83842502	     -0.31835388	      3.15546988	      0.52780561	      0.00921195	      3.87276896	     -1.64372332	     -7.49999987	      4.24525848	     -7.61249946	    -10.41626172	      2.53905135	      0.04431481	      7.20075569	     -1.90518552	     -7.49999987	      2.92017264	     -0.57452495	     -7.72423072	      0.01202423	     -0.01676022	     -0.00471914	    -23.75770541	     13.83243995	    -13.00268458	     56.53620180	     56.02755785	      0.00888319	     -0.01268306	     -0.00489139	     29.24941819	     11.85821319	     -3.27741714	     24.26717958	     65.95365620
